P2
64 56
255
119 118 118 117 117 117 116 116 114 114 114 114 113 113 113 113 114 114 114 114 114 114 114 114 112 112 
113 115 116 117 119 120 125 128 133 135 134 133 137 136 132 132 129 125 121 114 111 112 113 109 107 106 
105 106 107 108 116 119 120 124 128 124 124 135 
123 123 122 122 122 122 121 121 120 120 120 120 120 120 120 120 119 119 119 119 121 121 121 121 119 119 
120 122 122 122 123 124 125 127 129 134 135 140 153 158 156 150 150 147 130 124 121 120 121 119 119 116 
114 114 114 114 115 116 117 122 124 128 136 140 
127 127 127 127 127 126 125 124 124 124 124 123 124 124 124 124 123 123 123 124 124 124 124 124 124 124 
124 124 126 127 125 125 129 128 134 137 139 142 152 159 154 144 142 146 140 135 134 130 127 127 126 124 
122 122 121 121 120 121 123 125 127 126 129 129 
132 132 132 132 132 131 130 129 129 129 128 128 128 128 128 128 127 127 127 129 131 131 130 130 128 128 
127 127 127 127 132 131 132 133 136 133 135 136 137 137 135 134 134 135 135 137 135 134 133 132 130 129 
128 127 127 127 128 127 127 128 127 127 127 127 
138 138 138 138 136 136 135 134 134 133 133 133 132 132 132 132 132 132 132 134 135 135 135 135 135 134 
134 133 131 133 134 146 136 134 132 132 132 133 133 133 133 132 132 133 133 133 133 133 132 132 132 132 
131 130 130 129 130 128 127 128 128 129 129 127 
141 141 141 141 139 139 138 138 138 138 138 138 137 137 136 135 135 137 140 141 142 142 140 138 137 137 
136 136 134 135 141 186 185 138 136 134 134 135 135 136 135 135 135 135 134 134 134 134 134 133 133 132 
132 131 131 130 130 131 128 129 130 134 140 140 
145 145 145 145 144 143 143 142 141 141 141 141 141 142 144 143 143 143 142 141 142 142 141 141 141 141 
140 140 140 148 238 196 216 105 121 140 139 139 139 140 140 140 140 140 140 139 138 137 137 137 136 136 
135 134 134 133 134 134 135 141 148 149 151 148 
149 148 148 147 147 147 147 147 146 146 146 145 146 146 146 146 144 144 144 145 145 145 145 145 145 145 
144 144 144 153 199 134 152 72 61 148 142 142 142 142 142 143 143 143 144 142 142 142 142 139 142 139 
137 137 136 135 134 131 132 135 137 136 134 132 
151 150 150 150 149 149 149 149 149 149 149 148 148 148 148 148 148 148 149 149 148 148 148 148 149 149 
148 148 146 166 154 122 133 104 91 152 143 143 143 143 144 146 147 157 158 159 158 161 183 170 158 141 
140 140 139 138 137 135 133 132 133 133 132 132 
153 153 152 152 152 152 152 152 152 151 151 150 150 150 150 150 150 151 151 152 153 153 152 153 154 150 
151 152 152 157 229 99 178 152 70 154 148 148 150 150 158 154 164 185 193 189 189 198 201 208 185 154 
144 141 142 141 141 140 137 134 136 134 134 133 
156 156 155 155 155 155 155 155 155 154 154 153 153 153 153 153 153 153 154 154 154 155 155 159 162 168 
167 174 206 207 223 207 194 170 127 123 133 173 175 183 184 186 184 181 185 183 187 188 186 189 180 166 
152 144 144 144 145 146 143 138 137 135 136 134 
160 160 159 159 159 159 159 159 159 158 158 157 156 156 156 156 156 156 157 157 161 164 165 170 172 179 
170 197 222 168 158 199 187 200 220 131 111 192 189 177 180 180 175 174 173 172 174 172 167 162 160 155 
151 149 146 143 144 144 143 140 140 142 144 142 
161 162 162 161 161 161 161 161 161 160 160 160 160 160 160 160 160 161 161 162 163 165 164 178 185 197 
206 213 206 151 190 206 189 175 231 193 139 130 160 191 174 175 172 171 170 168 165 164 161 157 156 154 
152 150 149 146 145 144 143 142 142 142 141 140 
165 166 166 165 164 164 164 164 164 163 163 162 163 163 163 163 163 164 164 164 167 165 186 184 216 212 
212 233 113 205 183 200 190 178 186 219 188 104 126 125 167 172 169 170 168 166 164 163 161 159 158 154 
153 151 152 149 148 147 146 145 144 144 142 142 
167 168 168 167 167 167 166 166 166 165 165 165 166 166 166 166 166 165 166 166 165 200 213 244 242 243 
217 198 153 212 191 216 212 182 178 250 162 152 104 115 109 117 133 173 169 170 171 172 170 166 163 161 
156 156 154 152 152 151 149 148 147 149 148 145 
169 170 170 169 169 169 168 168 168 167 167 166 167 167 167 167 169 166 169 167 192 179 217 214 237 233 
227 137 202 220 196 135 187 184 180 237 166 188 80 112 149 89 119 126 179 172 169 172 170 166 162 160 
159 158 156 153 151 150 148 146 146 149 150 150 
171 172 172 171 171 171 170 170 169 169 168 168 168 168 168 168 168 168 166 188 190 228 134 161 245 207 
236 92 225 228 206 99 117 160 178 226 193 163 79 104 102 43 82 111 130 172 173 166 166 164 162 159 
157 156 154 152 150 149 147 145 145 145 144 144 
175 176 176 174 173 172 172 172 170 170 169 169 169 169 169 169 169 170 162 204 204 232 213 207 235 131 
204 94 229 224 202 170 186 194 189 211 191 157 88 95 94 77 86 104 98 177 163 165 166 162 160 160 
158 157 154 153 151 150 148 146 145 145 143 143 
176 176 176 175 175 174 174 174 173 173 172 172 172 172 172 172 171 166 140 181 221 221 225 227 232 134 
131 109 181 205 202 186 194 178 174 203 184 159 90 87 87 84 87 94 93 129 140 154 164 164 163 161 
159 157 155 154 152 151 149 147 145 145 143 143 
178 178 176 175 175 173 175 172 173 174 171 170 174 175 174 175 177 140 129 182 219 208 211 209 166 154 
78 108 186 189 192 172 186 161 168 195 167 173 133 83 81 78 85 83 92 125 118 148 170 165 166 162 
159 156 158 155 152 150 147 147 145 145 143 143 
176 175 176 171 173 173 173 167 161 169 199 217 111 164 170 155 194 122 146 166 223 216 214 212 185 179 
85 106 160 192 193 193 185 179 176 181 183 177 140 104 98 110 105 99 91 100 106 157 171 168 167 166 
165 173 199 157 161 159 159 148 148 146 145 144 
119 131 127 104 121 132 119 93 86 89 211 190 148 106 100 88 156 131 130 153 201 178 190 173 176 158 
74 87 95 131 143 138 131 128 117 126 152 137 101 82 71 62 70 71 73 82 114 138 151 152 138 125 
124 166 222 166 161 155 161 130 121 121 113 126 
107 94 79 117 96 97 123 97 87 125 189 164 130 131 100 69 172 143 182 193 191 138 192 211 213 194 
81 105 131 158 119 157 112 169 154 183 200 195 170 110 78 68 75 79 91 125 116 177 153 133 136 147 
123 124 112 114 104 103 104 87 104 130 108 83 
66 78 92 156 90 108 152 110 141 121 147 128 118 153 117 89 191 125 176 192 171 88 137 199 210 170 
102 116 157 155 37 127 118 181 143 197 201 188 163 125 92 66 56 90 106 127 117 143 144 135 135 147 
129 115 137 122 133 95 74 102 69 132 129 120 
53 82 120 165 98 130 156 143 120 125 142 144 116 137 186 158 138 135 180 198 165 88 137 192 199 124 
111 113 145 150 45 127 117 183 147 197 203 195 147 143 77 65 58 87 108 109 115 102 149 106 151 124 
95 96 116 112 150 117 121 139 113 150 114 117 
51 60 72 128 73 162 147 125 132 136 142 83 67 93 146 126 141 116 165 196 163 125 142 142 156 86 
151 98 138 133 47 70 65 179 149 178 189 216 146 125 75 69 64 80 146 116 117 124 94 44 58 82 
134 128 124 146 115 152 143 134 128 158 161 115 
41 41 43 91 47 108 84 88 143 165 165 193 160 165 177 130 163 170 136 191 185 192 154 156 92 108 
158 71 115 127 158 165 163 167 160 167 166 207 170 117 113 69 75 70 157 111 107 121 107 96 89 113 
166 116 93 125 171 143 83 142 120 128 121 158 
38 46 70 129 31 87 39 205 190 168 138 208 204 184 221 109 224 185 144 164 160 152 209 214 127 203 
202 103 174 185 184 171 183 194 208 191 166 150 182 166 89 117 126 126 192 127 93 113 102 115 133 117 
110 92 84 82 125 97 87 122 132 153 109 113 
40 53 92 139 32 69 86 64 202 176 190 194 190 189 197 158 201 188 168 216 194 186 191 184 128 191 
201 98 166 190 168 166 165 158 178 155 156 104 176 162 100 128 131 133 175 116 109 121 111 114 122 114 
93 81 77 72 117 83 79 139 91 126 161 142 
33 30 26 130 19 22 33 65 202 211 210 201 193 188 170 161 158 155 155 147 148 144 142 137 144 133 
137 143 148 144 145 149 151 143 127 121 118 117 117 112 108 124 115 111 101 84 79 80 69 64 62 67 
74 79 78 69 73 71 54 151 199 170 123 150 
80 19 27 103 20 26 56 61 170 141 121 174 183 188 210 199 210 210 214 209 203 202 198 185 198 178 
181 173 166 160 163 156 154 158 136 140 147 136 129 124 119 108 110 106 100 102 105 93 99 96 89 73 
71 83 65 47 39 51 49 178 187 174 153 110 
109 33 38 41 31 36 33 22 195 192 158 140 178 178 154 82 147 140 73 127 133 139 185 170 129 179 
168 160 135 131 139 130 127 135 135 150 151 101 145 138 129 73 76 67 104 105 86 85 88 63 60 54 
70 51 58 79 43 27 24 174 155 140 143 96 
78 18 21 25 26 33 29 18 206 181 186 192 112 130 214 125 183 140 139 215 204 197 195 131 43 148 
121 43 120 131 127 122 141 130 114 152 59 45 135 78 84 83 95 89 111 124 35 116 53 57 57 61 
119 76 70 69 46 51 15 186 134 143 146 99 
82 24 32 36 33 37 32 30 203 189 176 204 110 136 236 136 200 157 168 183 109 197 225 173 63 209 
188 49 187 91 76 86 133 78 138 227 86 53 229 100 114 83 96 94 183 152 42 148 81 56 75 77 
123 78 75 82 86 83 78 179 123 136 153 95 
80 32 42 45 39 58 59 52 202 201 175 201 112 135 234 123 203 160 166 177 156 199 230 171 85 221 
180 61 199 154 21 41 175 164 191 214 90 67 238 113 100 65 116 116 204 151 56 145 97 47 91 87 
119 81 70 121 142 119 107 173 87 144 152 92 
74 25 40 48 57 53 48 49 206 197 174 202 169 186 222 127 205 153 166 171 175 201 225 173 78 219 
178 66 187 151 22 52 170 177 201 229 105 68 235 111 102 89 134 112 207 151 59 156 86 84 107 83 
119 82 71 110 112 94 113 194 164 125 115 99 
67 18 27 41 44 43 30 36 208 195 176 205 225 210 231 116 204 160 150 197 189 177 233 169 75 221 
196 73 188 165 134 145 181 172 203 224 101 66 230 106 91 103 127 108 206 141 58 146 80 74 71 74 
130 76 72 103 95 76 92 87 105 138 161 123 
65 29 38 34 53 52 54 157 211 196 184 205 144 190 224 124 203 160 153 233 221 217 227 170 75 223 
180 71 180 155 160 143 166 150 200 217 96 66 232 107 95 117 107 108 211 145 56 147 93 90 87 71 
131 78 73 70 66 62 65 61 61 84 108 134 
59 71 50 41 52 49 96 136 164 211 166 203 142 152 235 123 208 153 154 187 189 194 223 170 78 220 
170 75 187 201 207 200 197 195 187 227 94 61 229 103 107 111 108 97 207 138 51 143 76 52 76 74 
119 70 79 84 67 56 53 58 58 65 73 82 
51 43 37 55 56 55 112 157 206 189 150 194 212 191 227 114 205 162 155 159 181 171 237 161 74 228 
178 75 184 133 44 61 162 158 193 215 88 62 231 94 88 66 86 108 211 142 52 146 66 83 87 80 
131 92 100 81 61 60 57 45 47 50 51 60 
42 42 56 53 57 60 57 128 178 132 137 157 149 169 218 119 207 167 145 214 202 187 229 169 76 228 
196 71 193 148 136 140 177 175 202 221 88 66 232 104 85 105 107 98 213 137 60 143 75 87 94 78 
81 112 77 69 44 42 66 41 39 42 46 48 
53 54 57 58 61 31 52 130 116 142 182 167 160 178 214 151 205 158 121 177 183 187 228 177 97 234 
186 70 183 179 147 143 171 191 200 220 108 100 237 115 93 111 123 126 210 150 104 143 117 72 112 165 
73 64 60 54 63 14 44 58 38 38 38 40 
56 56 59 50 15 31 59 104 132 142 194 199 162 144 114 173 197 194 184 177 172 163 197 192 177 193 
183 130 142 132 146 122 133 130 148 175 164 131 180 159 121 131 119 104 122 127 129 109 128 152 128 54 
64 79 67 35 62 34 16 37 54 39 37 39 
60 62 39 14 36 45 54 93 138 114 62 135 179 168 93 144 154 152 164 157 175 183 177 177 201 162 
167 171 145 137 122 147 133 103 124 139 173 140 155 156 137 133 136 137 123 130 102 117 145 88 66 56 
42 62 70 31 64 31 36 20 31 59 45 37 
59 24 21 42 49 42 65 95 106 87 30 47 190 175 110 155 199 143 143 136 146 144 144 150 153 133 
132 146 164 161 175 160 167 173 172 152 128 93 80 98 101 102 81 72 86 83 102 129 139 59 52 7 
39 71 77 25 62 34 36 35 26 26 56 61 
13 32 51 48 44 48 52 106 98 71 23 3 173 192 135 190 196 170 65 71 130 161 148 141 197 114 
123 131 125 110 110 73 112 118 138 129 139 59 75 62 122 115 60 62 95 95 99 170 151 80 50 7 
40 56 62 44 64 33 41 41 47 41 22 60 
37 50 44 47 68 62 87 90 87 75 18 15 104 130 114 188 179 165 46 66 141 194 184 181 216 119 
127 149 88 8 18 31 44 134 160 159 157 50 87 89 111 43 60 65 129 112 122 149 156 70 16 11 
40 57 56 77 40 46 45 47 46 60 48 26 
54 51 37 36 70 73 90 81 117 72 43 6 105 105 97 137 127 138 47 56 137 157 174 166 176 156 
146 158 24 14 18 36 31 115 164 153 175 79 90 86 105 37 50 64 123 94 115 164 148 67 17 6 
45 46 60 56 79 67 67 52 53 49 68 54 
34 35 38 42 56 71 74 76 110 100 72 57 102 104 104 135 118 102 59 130 142 119 168 186 208 124 
144 155 3 10 11 16 16 77 143 143 137 64 97 87 83 52 75 52 145 97 117 150 151 61 14 19 
72 88 102 87 63 66 63 55 68 74 81 112 
38 38 38 40 39 41 59 73 72 84 91 76 154 129 108 135 121 120 111 150 138 112 131 167 221 144 
150 149 3 13 22 37 35 85 144 158 185 52 89 81 67 76 105 67 153 92 119 159 149 72 46 54 
66 92 87 96 89 79 76 78 85 82 89 85 
41 42 42 43 40 41 40 41 57 71 77 86 100 115 87 112 124 131 143 148 156 149 146 146 200 118 
156 137 2 13 14 23 27 99 140 158 158 59 92 100 92 138 145 160 163 153 162 176 152 95 90 112 
114 119 117 89 75 80 84 80 81 81 83 82 
39 41 41 42 44 40 42 42 44 41 55 73 77 90 97 95 100 103 114 117 127 134 140 155 141 127 
146 182 33 63 97 111 107 164 182 175 197 79 118 129 145 154 145 132 141 133 143 143 147 141 135 114 
93 79 78 82 78 84 79 85 79 84 77 86 
43 43 41 45 42 46 44 46 46 46 49 45 50 52 60 71 74 79 85 95 99 101 101 97 108 109 
115 127 69 106 120 119 116 157 185 173 180 119 127 143 137 132 138 138 135 132 122 105 98 89 82 73 
76 79 79 80 84 78 80 83 81 77 79 82 
42 40 45 42 44 43 46 44 46 49 45 53 49 50 48 53 51 46 48 47 56 63 77 80 79 72 
78 73 88 104 107 96 105 104 116 115 111 112 116 110 91 89 85 81 76 81 79 89 84 84 79 83 
81 83 82 83 85 77 82 80 88 86 83 83 
41 47 43 48 47 47 46 49 50 47 50 51 49 50 50 53 50 50 48 54 56 52 54 52 54 52 
49 66 73 80 77 81 77 79 79 78 76 78 80 79 81 81 83 82 79 85 77 86 81 80 84 80 
87 76 84 80 81 82 85 86 85 90 86 85 
43 48 46 49 48 49 47 52 49 47 52 48 50 47 55 50 47 53 50 54 51 51 58 55 56 53 
56 68 82 85 79 81 83 83 82 80 78 81 84 78 79 77 77 80 75 80 78 85 83 74 87 78 
83 87 78 83 84 83 82 83 89 84 92 82 
